<svg
    width="74"
    height="76"
    viewBox="0 0 74 76"
    fill="none"
    xmlns="http://www.w3.org/2000/svg"
>
    <path
        d="M36.6818 0.348861C58.0908 0.0313916 74.1134 18.0463 73.9994 37.562C73.8797 59.4328 56.6031 75.4967 36.3797 75.2081C26.6525 75.0523 17.3781 71.0195 10.5678 63.9844C3.75754 56.9492 -0.0394475 47.4789 0.000309084 37.6273C0.0400656 27.7757 3.91336 18.3371 10.7802 11.3586C17.647 4.38 26.9537 0.424123 36.6818 0.348861ZM36.1745 24.6151C34.6127 27.0336 32.6234 27.8879 30.1611 27.0682C29.1237 26.7219 28.6335 26.9932 28.1319 27.8301C26.6043 30.3988 25.071 32.9674 23.4636 35.484C22.9905 36.2171 23.133 36.575 23.7087 37.1291C26.1027 39.438 26.4675 41.8681 24.7689 44.7311C24.2502 45.6142 23.3781 46.2895 22.392 47.3632C24.3528 51.4787 26.4333 55.8367 28.491 60.1427C31.569 59.1903 33.1649 59.7675 34.9433 62.0764C35.1029 62.2432 35.2992 62.3693 35.5162 62.4446C35.7331 62.5198 35.9646 62.542 36.1916 62.5093C39.4292 61.3549 42.7295 60.3621 45.8245 58.9133C48.6745 57.5741 51.2623 55.7039 54.004 54.1397C55.0072 53.5625 55.258 52.864 55.1098 51.7211C54.4268 46.5621 53.2392 41.4846 51.5644 36.5634C51.154 35.3513 50.7607 34.0352 49.9855 33.1001C49.0751 32.0948 47.9964 31.2604 46.7992 30.6354C43.3336 28.5978 39.794 26.6526 36.1745 24.6151ZM0.755004 38.8146C0.886103 39.969 1.0457 41.8565 1.325 43.7498C2.59332 51.7005 6.49494 58.9777 12.3886 64.3853C12.9432 64.7718 13.6188 64.9383 14.2867 64.8528C14.509 64.8528 14.8225 63.9466 14.8567 63.4444C14.9878 58.2495 15.9967 53.2104 17.2963 48.2117C17.4266 47.8922 17.4359 47.5352 17.3223 47.2092C17.2087 46.8832 16.9802 46.6112 16.6807 46.4454C13.0783 43.8306 13.2607 39.0916 16.9201 36.5173C17.1381 36.344 17.3148 36.1234 17.4372 35.8716C17.5595 35.6198 17.6244 35.3433 17.6269 35.0627C17.1481 31.4378 16.5724 27.8301 15.9796 24.2225C15.8509 23.8523 15.6193 23.5276 15.3127 23.2875C14.5721 22.6781 13.8714 22.0206 13.2151 21.3191C12.685 20.6496 12.1777 20.3206 11.3398 20.4937C9.52723 20.8785 7.71275 21.2383 5.89636 21.5731C5.34959 21.6796 4.8425 21.937 4.43111 22.3169C4.01971 22.6969 3.72 23.1846 3.56508 23.7261C1.71531 28.5364 0.762511 33.6524 0.755004 38.8146ZM67.473 28.7306C70.0265 28.9326 71.5256 27.3742 70.8929 25.6829C68.6411 19.2897 64.6711 13.6602 59.4303 9.42848C59.1249 9.1745 58.7724 8.98494 58.3936 8.87094C58.0148 8.75694 57.6172 8.72082 57.2244 8.76468C53.5765 9.80944 49.9684 10.9985 46.3945 12.228C45.3571 12.5743 44.7301 13.2554 45.0322 14.5715C45.1462 15.091 44.6845 15.7259 44.6446 16.3031C44.6047 16.8803 44.5591 17.7115 44.8897 18.0348C47.0728 19.98 49.1932 22.0753 51.6385 23.6107C56.4019 26.6507 61.8512 28.4127 67.473 28.7306ZM26.1198 3.52933C24.3635 3.47168 22.6542 4.10941 21.3546 5.30715C18.5047 8.03739 17.8036 11.6565 17.3647 15.3738C17.3305 15.6566 17.7352 16.0203 17.986 16.3031C18.613 17.0247 19.24 17.7519 19.9239 18.4157C20.3331 18.9057 20.8533 19.2879 21.4401 19.5298C22.9221 19.9107 24.4668 20.0262 25.9545 20.3898C26.2961 20.5218 26.6726 20.5282 27.0184 20.408C27.3642 20.2877 27.6574 20.0484 27.8469 19.7318C29.4315 17.6307 31.6146 17.1632 33.9971 18.3003C34.3676 18.4735 35.0687 18.6005 35.2568 18.3984C36.317 17.2729 38.3006 16.7303 37.7192 14.4734C37.5767 13.9308 38.084 13.2439 38.141 12.6089C38.1866 12.0837 38.2037 11.3564 37.9016 11.0274C36.6506 9.64993 35.3182 8.35072 33.9116 7.13693C31.5746 5.19748 29.0211 3.70826 26.1198 3.52933ZM34.4645 67.8486L34.0769 68.1314C36.1403 69.9901 38.198 71.8545 40.2842 73.69C40.5126 73.8425 40.7894 73.9022 41.0594 73.8574C45.3001 73.2225 49.4725 72.3162 53.2288 70.1113C53.8288 69.6975 54.268 69.0853 54.4714 68.3796C55.6626 64.3391 55.7481 60.1543 55.5771 55.9579C55.5372 54.8554 55.1839 54.5726 54.2377 55.1844C52.9495 56.0156 51.6727 56.8699 50.3617 57.6549C46.0416 60.1445 41.451 62.1183 36.6818 63.5368C35.8439 63.8023 35.6615 64.2583 35.4734 64.9856C35.1855 65.9567 34.8487 66.9123 34.4645 67.8486ZM46.2463 21.3018C46.339 21.6632 46.4552 22.018 46.594 22.3639C47.7568 24.7998 48.9348 27.2318 50.128 29.6599C50.6581 30.7451 51.0343 32.0092 51.838 32.8404C54.8419 35.9516 57.9939 38.9243 61.0833 41.9489C61.5678 42.4222 65.0733 42.9936 65.6433 42.6473C65.7924 42.5346 65.9182 42.3934 66.0138 42.2317C67.9118 39.3456 69.6845 36.396 70.7789 33.0886C71.4287 31.1434 70.5623 29.862 68.5502 29.8158C62.9905 29.7196 57.5429 28.2154 52.7044 25.4405C50.5042 24.1879 48.4294 22.7102 46.2463 21.3018ZM19.4565 65.1703C21.0753 65.026 22.6998 64.697 24.3015 64.7893C25.9032 64.8817 26.1198 63.912 26.2851 62.7518C26.4333 61.7012 28.0521 61.1298 27.2256 59.7733L27.0546 59.5367C26.4276 58.3822 25.7379 57.274 25.1907 56.0734C24.0165 53.5336 22.8366 50.9939 21.8163 48.3906C21.2463 46.9995 20.2602 47.4959 19.3881 47.5306C19.012 47.5306 18.385 47.9519 18.328 48.2636C17.5072 52.7197 16.5724 57.1701 16.048 61.6608C15.6946 65.1357 15.9397 65.1645 19.4508 65.1761L19.4565 65.1703ZM55.7424 68.4258C56.0502 68.3912 56.2098 68.4258 56.3124 68.3508C60.7595 65.5349 64.5156 61.7312 67.2962 57.2278C67.5248 56.8905 67.6185 56.4779 67.5584 56.0734C66.9087 54.2205 66.1905 52.3965 65.4324 50.584C65.3423 50.4333 65.2215 50.3038 65.0779 50.2042C64.9344 50.1047 64.7715 50.0374 64.6002 50.0068C62.4798 49.7124 60.3993 49.5912 58.9002 51.6115C58.4898 52.1887 57.7602 52.4946 57.3897 53.0545C56.9421 53.645 56.6604 54.347 56.5746 55.0863C56.472 57.9378 56.5746 60.795 56.4663 63.6464C56.3088 65.2514 56.0671 66.8468 55.7424 68.4258ZM37.2461 1.53793C37.2072 1.8619 37.2072 2.18945 37.2461 2.51342C38.0156 5.09935 38.7737 7.70837 39.6344 10.2539C39.7313 10.5483 40.4438 10.6522 40.8827 10.8311C41.732 11.1082 42.5927 11.3795 43.459 11.5988C43.9354 11.788 44.4532 11.8438 44.9581 11.7604C47.8081 10.7157 50.6581 9.55547 53.5081 8.48762C54.4315 8.14129 55.4119 7.97389 56.358 7.71992V7.23506C50.5954 3.5755 44.3596 1.30127 37.2461 1.53793ZM20.4711 35.6918C21.7194 36.1536 22.2153 35.4783 22.7169 34.5374C23.6232 32.8577 24.6378 31.2415 25.6239 29.6022C26.7639 27.6743 28.8729 25.9657 26.9577 23.3567C26.8152 23.1605 26.9919 22.7449 26.8551 22.5371C26.5986 22.133 26.2851 21.5731 25.8918 21.475C24.3642 21.094 22.7967 20.8978 21.252 20.5745C21.0911 20.5151 20.9196 20.4905 20.7487 20.5024C20.5778 20.5142 20.4113 20.5622 20.2598 20.6432C20.1084 20.7243 19.9754 20.8366 19.8694 20.9729C19.7634 21.1092 19.6869 21.2665 19.6446 21.4346C19.2979 22.0974 18.7421 22.6237 18.0658 22.9296C17.7376 23.03 17.4613 23.2567 17.2961 23.5609C17.131 23.8652 17.0901 24.2229 17.1823 24.5573C17.5927 27.5704 17.9233 30.6008 18.4078 33.6023C18.5902 34.7337 18.6472 36.2806 20.4711 35.6918ZM15.7117 66.4748C18.1399 70.6423 34.3391 75.7103 38.1125 73.8401C36.6647 72.2585 35.1884 70.6019 33.6494 69.0088C33.4784 68.8356 32.954 68.9164 32.6291 69.0088C29.9673 69.7707 27.978 69.0088 26.4846 66.775C26.2859 66.5258 26.0375 66.3219 25.7555 66.1766C25.4736 66.0314 25.1646 65.9481 24.8487 65.9322C22.2552 65.9784 19.6674 66.1804 17.074 66.3305C16.6807 66.3536 16.2874 66.4113 15.7117 66.4748ZM49.2274 30.9067C49.1991 30.5039 49.1284 30.1053 49.0165 29.7176C47.2096 26.1331 45.3685 22.5602 43.5731 18.9699C43.2026 18.2195 42.6953 18.0694 41.9087 18.0463C40.9659 17.9471 40.0333 17.7655 39.1214 17.5037C38.9048 17.4576 38.6027 17.2786 38.483 17.3652C37.5924 17.935 36.7682 18.605 36.0263 19.3624C35.7983 19.6279 36.203 20.4475 36.3056 21.0132C36.4525 21.4575 36.5219 21.9243 36.5108 22.3928C36.2942 23.5472 36.9326 23.9859 37.7762 24.4361C40.6889 25.9946 43.5844 27.5762 46.4629 29.1751C47.2951 29.6311 48.0874 30.1794 49.2274 30.9067ZM72.5972 32.4941C70.5566 36.2113 68.6414 39.6804 66.7719 43.1726C66.6502 43.5407 66.6748 43.9422 66.8403 44.2924C67.5357 45.8335 67.5414 47.2708 66.4755 48.6561C66.3649 48.7935 66.2839 48.9528 66.2377 49.1238C66.1916 49.2948 66.1813 49.4737 66.2076 49.6489C66.9372 51.4325 67.7408 53.1931 68.5787 55.0979C72.2886 48.1945 73.698 40.2625 72.5972 32.4825V32.4941ZM18.2482 6.66361C12.7906 9.95579 8.32151 14.691 5.32067 20.361C7.74885 19.9973 9.88063 19.7376 11.9269 19.3335C12.343 19.2469 12.6679 18.6178 13.0213 18.231C13.5913 17.5961 14.0587 16.5917 14.7598 16.3839C15.9739 16.0145 16.1848 15.1949 16.4185 14.2252C17.0113 11.7373 17.6212 9.25532 18.2482 6.66361ZM52.8412 35.1146L52.6474 35.409C53.9356 40.9503 55.218 46.4916 56.5461 52.206L59.7609 49.4411C60.0194 49.2475 60.2052 48.9707 60.2881 48.6561C60.3709 48.3415 60.3458 48.0078 60.2169 47.7095C59.9832 46.8437 59.7837 45.6661 60.1827 44.9793C61.0206 43.5362 60.3081 42.7223 59.4816 41.7988C59.1054 41.3832 58.752 40.9445 58.3416 40.552C56.5176 38.7395 54.6842 36.9271 52.8412 35.1146ZM35.4449 22.5948C35.4683 22.0845 35.3887 21.5748 35.2109 21.0968C35.0332 20.6188 34.7611 20.1824 34.4113 19.8145C34.0614 19.4465 33.6412 19.1547 33.1762 18.9567C32.7112 18.7588 32.2112 18.6589 31.7068 18.6632C31.2024 18.6676 30.7042 18.776 30.2426 18.9819C29.781 19.1877 29.3657 19.4868 29.022 19.8607C28.6784 20.2346 28.4136 20.6755 28.2439 21.1565C28.0742 21.6375 28.0031 22.1485 28.035 22.6583C28.0787 23.6309 28.489 24.5494 29.1815 25.2249C29.8739 25.9003 30.7957 26.2811 31.757 26.289C32.7194 26.2605 33.6353 25.8634 34.3198 25.1777C35.0042 24.4921 35.4064 23.569 35.4449 22.5948ZM30.7425 60.8065C30.2649 60.81 29.7927 60.9086 29.3528 61.0968C28.9128 61.285 28.5138 61.5591 28.1785 61.9035C27.8432 62.2479 27.5782 62.6558 27.3985 63.1039C27.2189 63.552 27.1282 64.0315 27.1315 64.5152C27.1349 64.9988 27.2323 65.477 27.4182 65.9225C27.604 66.368 27.8747 66.772 28.2148 67.1116C28.5549 67.4511 28.9577 67.7195 29.4001 67.9014C29.8426 68.0834 30.3162 68.1752 30.7938 68.1718C31.2713 68.1684 31.7435 68.0698 32.1835 67.8816C32.6234 67.6933 33.0224 67.4192 33.3577 67.0748C33.693 66.7305 33.958 66.3226 34.1377 65.8745C34.3173 65.4264 34.408 64.9468 34.4047 64.4632C34.4013 63.9796 34.3039 63.5014 34.118 63.0559C33.9322 62.6104 33.6615 62.2063 33.3214 61.8668C32.9813 61.5272 32.5786 61.2588 32.1361 61.0769C31.6936 60.895 31.22 60.8031 30.7425 60.8065ZM19.7073 36.8174C18.4343 36.9065 17.2457 37.4948 16.3942 38.4574C15.5427 39.4199 15.0954 40.6807 15.1474 41.972C15.2272 44.2808 17.6269 46.532 19.9923 46.4743C20.6398 46.453 21.2764 46.3008 21.8649 46.0266C22.4533 45.7524 22.9816 45.3618 23.4188 44.8777C23.8559 44.3936 24.193 43.8259 24.4101 43.2079C24.6273 42.5899 24.7202 41.9342 24.6834 41.2793C24.5751 38.8204 22.2837 36.7481 19.7073 36.8174ZM37.7933 9.19759C37.2974 7.3505 36.8642 5.88437 36.5108 4.40092C35.7926 1.36476 35.804 1.32436 32.7089 1.65337C31.2783 1.79768 29.859 2.1036 28.4511 2.34026L28.3542 2.8713C32.1218 3.85834 34.835 6.45581 37.7933 9.19759ZM61.0377 46.203C61.0166 46.5538 61.0685 46.9052 61.1903 47.2343C61.312 47.5635 61.5008 47.863 61.7443 48.1134C61.9878 48.3638 62.2807 48.5596 62.6038 48.6879C62.9269 48.8162 63.2731 48.8742 63.6198 48.8582C63.9563 48.8674 64.2912 48.8089 64.6053 48.6863C64.9194 48.5636 65.2064 48.3792 65.4496 48.1436C65.6929 47.9079 65.8877 47.6258 66.0226 47.3136C66.1576 47.0013 66.2302 46.665 66.2361 46.3242C66.2105 45.6406 65.9351 44.9909 65.4632 44.5014C64.9914 44.0118 64.3567 43.7172 63.6825 43.6747C63.0052 43.6709 62.3524 43.9314 61.8599 44.4022C61.3673 44.8731 61.0729 45.518 61.0377 46.203ZM19.0234 19.651C19.0045 18.9652 18.7259 18.3129 18.2452 17.8294C17.7645 17.3459 17.1186 17.0681 16.4413 17.0535C15.7643 17.0411 15.1098 17.2996 14.6199 17.773C14.1301 18.2464 13.8444 18.8963 13.825 19.5817C13.8255 20.2647 14.0757 20.9232 14.5271 21.4305C14.9786 21.9378 15.5996 22.258 16.2703 22.3293C16.9655 22.2833 17.6225 21.9908 18.1259 21.5032C18.6294 21.0155 18.9471 20.3638 19.0234 19.6625V19.651ZM41.3501 17.0535C42.0024 17.0622 42.6331 16.8166 43.1117 16.3675C43.5902 15.9184 43.8798 15.3001 43.9207 14.6407C43.926 14.2792 43.8606 13.9202 43.7284 13.5844C43.5961 13.2486 43.3995 12.9426 43.15 12.684C42.9005 12.4254 42.6029 12.2194 42.2744 12.0777C41.946 11.936 41.5931 11.8616 41.2361 11.8586C40.9012 11.8682 40.5715 11.9453 40.2665 12.0854C39.9614 12.2256 39.6869 12.426 39.4592 12.6748C39.2315 12.9237 39.0551 13.216 38.9404 13.5348C38.8256 13.8535 38.7747 14.1922 38.7908 14.5311C38.7735 14.8729 38.8285 15.2145 38.952 15.5331C39.0754 15.8517 39.2646 16.14 39.5068 16.3788C39.749 16.6175 40.0387 16.8011 40.3565 16.9175C40.6744 17.0339 41.0131 17.0802 41.3501 17.0535ZM71.7878 28.3612H71.2976C71.2121 28.8056 70.9727 29.2963 71.0924 29.6715C71.2121 30.0467 71.6966 30.2487 72.0215 30.5431L72.2894 30.3006L71.7878 28.3612Z"
        fill="#25282B"
    />
    <path
        d="M23.6346 41.5917C23.6551 42.1115 23.5661 42.6297 23.3736 43.112C23.181 43.5942 22.8893 44.0295 22.5178 44.3887C22.1463 44.748 21.7036 45.0231 21.219 45.1957C20.7345 45.3683 20.2191 45.4345 19.7074 45.3898C17.6269 45.3321 16.2874 43.814 16.3615 41.5513C16.349 41.0799 16.4331 40.6109 16.6084 40.174C16.7836 39.7371 17.0463 39.3416 17.3799 39.0125C17.7134 38.6834 18.1106 38.4278 18.5465 38.2617C18.9824 38.0956 19.4475 38.0228 19.9126 38.0476C22.0329 38.0765 23.6346 39.6234 23.6346 41.5917ZM19.9297 39.1155C19.5723 39.0889 19.2134 39.1381 18.8758 39.2599C18.5383 39.3818 18.2296 39.5736 17.9694 39.8231C17.7092 40.0726 17.5033 40.3744 17.3648 40.709C17.2263 41.0437 17.1583 41.4039 17.165 41.7668C17.1718 42.1296 17.2532 42.487 17.4041 42.8161C17.555 43.1452 17.772 43.4389 18.0413 43.6782C18.3106 43.9176 18.6263 44.0975 18.9681 44.2063C19.3099 44.3152 19.6704 44.3506 20.0266 44.3104C20.6648 44.2383 21.2535 43.9274 21.6772 43.4386C22.1009 42.9499 22.329 42.3185 22.3169 41.6682C22.3047 41.0179 22.0532 40.3957 21.6116 39.9235C21.17 39.4513 20.5702 39.1631 19.9297 39.1155Z"
        fill="#25282B"
    />
</svg>
